<svg width="671" height="134" viewBox="0 0 671 134" fill="none" xmlns="http://www.w3.org/2000/svg">
<g clip-path="url(#clip0_43_82)">
<path d="M134 67C134 104.003 104.003 134 67 134C29.9969 134 0 104.003 0 67C0 29.9969 29.9969 0 67 0C104.003 0 134 29.9969 134 67Z" fill="white"/>
<path d="M39.6666 46.5L32.8333 49.9167" stroke="black" stroke-width="4" stroke-linecap="round" stroke-linejoin="round"/>
<path d="M60.1667 46.5H73.8334" stroke="black" stroke-width="4" stroke-linecap="round" stroke-linejoin="round"/>
<path d="M101.167 49.9167L94.3333 46.5" stroke="black" stroke-width="4" stroke-linecap="round" stroke-linejoin="round"/>
<path d="M87.5001 36.25H46.5001C42.7261 36.25 39.6667 39.3094 39.6667 43.0833V84.0833C39.6667 87.8573 42.7261 90.9167 46.5001 90.9167H87.5001C91.274 90.9167 94.3334 87.8573 94.3334 84.0833V43.0833C94.3334 39.3094 91.274 36.25 87.5001 36.25Z" stroke="black" stroke-width="4" stroke-linecap="round" stroke-linejoin="round"/>
<path d="M39.6667 63.5834H94.3334" stroke="black" stroke-width="4" stroke-linecap="round" stroke-linejoin="round"/>
<path d="M53.3333 77.25H53.3683" stroke="black" stroke-width="4" stroke-linecap="round" stroke-linejoin="round"/>
<path d="M80.6667 77.25H80.7017" stroke="black" stroke-width="4" stroke-linecap="round" stroke-linejoin="round"/>
<path d="M46.5 90.9166V97.75" stroke="black" stroke-width="4" stroke-linecap="round" stroke-linejoin="round"/>
<path d="M87.5 97.75V90.9166" stroke="black" stroke-width="4" stroke-linecap="round" stroke-linejoin="round"/>
</g>
<path d="M168.736 65.5V19.42H188.256C191.584 19.42 194.421 19.9747 196.768 21.084C199.115 22.1933 200.907 23.772 202.144 25.82C203.424 27.868 204.064 30.3 204.064 33.116C204.064 35.9747 203.424 38.4493 202.144 40.54C200.907 42.588 199.093 44.188 196.704 45.34C194.357 46.492 191.541 47.068 188.256 47.068H173.92V41.436H187.936C190.965 41.436 193.269 40.7107 194.848 39.26C196.469 37.8093 197.28 35.7827 197.28 33.18C197.28 30.5347 196.491 28.508 194.912 27.1C193.333 25.692 191.008 24.988 187.936 24.988H175.52V65.5H168.736ZM220.484 66.14C218.308 66.14 216.388 65.692 214.724 64.796C213.06 63.8573 211.758 62.5773 210.82 60.956C209.924 59.3347 209.476 57.4787 209.476 55.388V32.86H216.132V53.852C216.132 56.1133 216.686 57.7987 217.796 58.908C218.905 60.0173 220.484 60.572 222.532 60.572C224.366 60.572 225.988 60.1453 227.396 59.292C228.846 58.4387 229.977 57.2653 230.788 55.772C231.641 54.236 232.068 52.4653 232.068 50.46L232.9 58.268C231.833 60.6573 230.19 62.5773 227.972 64.028C225.796 65.436 223.3 66.14 220.484 66.14ZM232.324 65.5V57.82H232.068V32.86H238.66V65.5H232.324ZM265.393 66.076C262.321 66.076 259.761 65.3507 257.713 63.9C255.665 62.4067 254.321 60.3373 253.681 57.692L254.321 57.564V65.5H247.985V19.42H254.641V40.348L253.937 40.156C254.662 37.6813 256.07 35.74 258.161 34.332C260.294 32.924 262.854 32.22 265.841 32.22C268.785 32.22 271.323 32.924 273.457 34.332C275.633 35.74 277.297 37.7027 278.449 40.22C279.643 42.7373 280.241 45.6813 280.241 49.052C280.241 52.4653 279.622 55.452 278.385 58.012C277.147 60.572 275.419 62.556 273.201 63.964C270.982 65.372 268.379 66.076 265.393 66.076ZM263.985 60.572C266.886 60.572 269.19 59.548 270.897 57.5C272.603 55.452 273.457 52.636 273.457 49.052C273.457 45.5107 272.603 42.7587 270.897 40.796C269.19 38.7907 266.865 37.788 263.921 37.788C261.019 37.788 258.694 38.812 256.945 40.86C255.238 42.8653 254.385 45.66 254.385 49.244C254.385 52.7427 255.238 55.516 256.945 57.564C258.694 59.5693 261.041 60.572 263.985 60.572ZM287.235 65.5V19.42H293.891V65.5H287.235ZM303.235 65.5V32.86H309.891V65.5H303.235ZM302.915 26.46V18.972H310.275V26.46H302.915ZM330.948 66.14C326.681 66.14 323.289 65.2013 320.772 63.324C318.255 61.4467 316.825 58.8013 316.484 55.388H322.628C322.927 57.2653 323.78 58.716 325.188 59.74C326.639 60.7213 328.601 61.212 331.076 61.212C333.252 61.212 334.916 60.828 336.068 60.06C337.22 59.292 337.796 58.204 337.796 56.796C337.796 55.772 337.455 54.9187 336.772 54.236C336.132 53.5107 334.852 52.9133 332.932 52.444L327.684 51.228C324.399 50.4173 321.945 49.2227 320.324 47.644C318.745 46.0227 317.956 44.0387 317.956 41.692C317.956 38.748 319.044 36.444 321.22 34.78C323.439 33.0733 326.468 32.22 330.308 32.22C334.105 32.22 337.156 33.0733 339.46 34.78C341.807 36.4867 343.129 38.876 343.428 41.948H337.284C337.028 40.412 336.281 39.2387 335.044 38.428C333.849 37.5747 332.207 37.148 330.116 37.148C328.153 37.148 326.639 37.5107 325.572 38.236C324.548 38.9187 324.036 39.8787 324.036 41.116C324.036 42.14 324.42 42.9933 325.188 43.676C325.999 44.3587 327.321 44.9347 329.156 45.404L334.532 46.748C337.647 47.516 339.993 48.7747 341.572 50.524C343.151 52.2307 343.94 54.3 343.94 56.732C343.94 59.676 342.788 61.98 340.484 63.644C338.223 65.308 335.044 66.14 330.948 66.14ZM350.11 65.5V19.42H356.766V65.5H350.11ZM373.278 65.5V44.508C373.278 42.2467 372.702 40.5613 371.55 39.452C370.44 38.3427 368.776 37.788 366.558 37.788C364.638 37.788 362.931 38.2147 361.438 39.068C359.987 39.9213 358.835 41.0947 357.982 42.588C357.171 44.0813 356.766 45.852 356.766 47.9L355.934 40.092C357 37.66 358.643 35.74 360.862 34.332C363.08 32.924 365.662 32.22 368.606 32.22C372.104 32.22 374.856 33.2013 376.862 35.164C378.867 37.1267 379.87 39.7293 379.87 42.972V65.5H373.278ZM403.002 66.14C399.717 66.14 396.815 65.4147 394.298 63.964C391.823 62.5133 389.882 60.508 388.474 57.948C387.066 55.388 386.362 52.444 386.362 49.116C386.362 45.7453 387.045 42.8013 388.41 40.284C389.818 37.724 391.781 35.74 394.298 34.332C396.815 32.924 399.695 32.22 402.938 32.22C406.095 32.22 408.826 32.9027 411.13 34.268C413.477 35.5907 415.269 37.4467 416.506 39.836C417.786 42.2253 418.426 45.0627 418.426 48.348C418.426 48.86 418.405 49.3507 418.362 49.82C418.362 50.2467 418.319 50.6947 418.234 51.164H390.842V46.172H413.562L411.898 48.156C411.898 44.6573 411.109 41.9907 409.53 40.156C407.951 38.3213 405.754 37.404 402.938 37.404C399.909 37.404 397.498 38.4493 395.706 40.54C393.957 42.588 393.082 45.4467 393.082 49.116C393.082 52.828 393.957 55.7293 395.706 57.82C397.498 59.9107 399.973 60.956 403.13 60.956C405.05 60.956 406.714 60.572 408.122 59.804C409.53 58.9933 410.575 57.82 411.258 56.284H417.53C416.463 59.356 414.65 61.7667 412.09 63.516C409.573 65.2653 406.543 66.14 403.002 66.14ZM425.235 65.5V32.86H431.571V40.988H431.891V65.5H425.235ZM431.891 48.476L431.059 40.732C431.827 37.9587 433.149 35.8467 435.027 34.396C436.904 32.9453 439.144 32.22 441.747 32.22C442.728 32.22 443.411 32.3053 443.795 32.476V38.748C443.581 38.6627 443.283 38.62 442.899 38.62C442.515 38.5773 442.045 38.556 441.491 38.556C438.291 38.556 435.88 39.388 434.259 41.052C432.68 42.716 431.891 45.1907 431.891 48.476Z" fill="white"/>
<path d="M179.64 120.9C177.667 120.9 175.84 120.54 174.16 119.82C172.507 119.073 171.067 118.047 169.84 116.74C168.613 115.407 167.667 113.847 167 112.06C166.333 110.247 166 108.26 166 106.1C166 103.94 166.333 101.967 167 100.18C167.667 98.3667 168.6 96.8067 169.8 95.5C171.027 94.1667 172.467 93.14 174.12 92.42C175.8 91.6733 177.627 91.3 179.6 91.3C181.76 91.3 183.693 91.74 185.4 92.62C187.133 93.5 188.547 94.74 189.64 96.34C190.76 97.94 191.453 99.8067 191.72 101.94H188.44C188.12 99.5667 187.173 97.7 185.6 96.34C184.053 94.9533 182.067 94.26 179.64 94.26C177.587 94.26 175.787 94.7667 174.24 95.78C172.693 96.7667 171.493 98.1533 170.64 99.94C169.787 101.7 169.36 103.753 169.36 106.1C169.36 108.447 169.787 110.513 170.64 112.3C171.493 114.06 172.693 115.447 174.24 116.46C175.787 117.447 177.573 117.94 179.6 117.94C182.08 117.94 184.107 117.247 185.68 115.86C187.28 114.473 188.227 112.607 188.52 110.26H191.8C191.533 112.393 190.84 114.26 189.72 115.86C188.627 117.46 187.213 118.7 185.48 119.58C183.773 120.46 181.827 120.9 179.64 120.9ZM196.848 120.5V100.1H199.848V105.3H200.048V120.5H196.848ZM200.048 109.86L199.528 105.02C200.008 103.287 200.862 101.967 202.088 101.06C203.315 100.153 204.728 99.7 206.328 99.7C206.995 99.7 207.448 99.7533 207.688 99.86V102.94C207.555 102.887 207.368 102.86 207.128 102.86C206.888 102.833 206.595 102.82 206.248 102.82C204.222 102.82 202.675 103.433 201.608 104.66C200.568 105.86 200.048 107.593 200.048 109.86ZM211.497 120.5V100.1H214.697V120.5H211.497ZM211.257 95.46V91.7H214.937V95.46H211.257ZM229.388 120.9C227.441 120.9 225.721 120.447 224.228 119.54C222.735 118.607 221.561 117.34 220.708 115.74C219.855 114.14 219.428 112.3 219.428 110.22C219.428 108.14 219.841 106.313 220.668 104.74C221.521 103.14 222.708 101.9 224.228 101.02C225.748 100.14 227.495 99.7 229.468 99.7C231.361 99.7 233.001 100.113 234.388 100.94C235.801 101.767 236.881 102.927 237.628 104.42C238.401 105.913 238.788 107.673 238.788 109.7C238.788 109.967 238.775 110.22 238.748 110.46C238.748 110.7 238.721 110.967 238.668 111.26H221.828V108.58H236.708L235.668 110.06C235.668 107.607 235.121 105.727 234.028 104.42C232.961 103.087 231.441 102.42 229.468 102.42C227.441 102.42 225.801 103.127 224.548 104.54C223.321 105.927 222.708 107.807 222.708 110.18C222.708 112.607 223.321 114.553 224.548 116.02C225.801 117.46 227.468 118.18 229.548 118.18C230.855 118.18 232.001 117.9 232.988 117.34C233.975 116.753 234.695 115.927 235.148 114.86H238.188C237.521 116.727 236.401 118.207 234.828 119.3C233.281 120.367 231.468 120.9 229.388 120.9ZM259.974 120.9C258.027 120.9 256.307 120.447 254.814 119.54C253.321 118.607 252.147 117.34 251.294 115.74C250.441 114.14 250.014 112.3 250.014 110.22C250.014 108.14 250.427 106.313 251.254 104.74C252.107 103.14 253.294 101.9 254.814 101.02C256.334 100.14 258.081 99.7 260.054 99.7C261.947 99.7 263.587 100.113 264.974 100.94C266.387 101.767 267.467 102.927 268.214 104.42C268.987 105.913 269.374 107.673 269.374 109.7C269.374 109.967 269.361 110.22 269.334 110.46C269.334 110.7 269.307 110.967 269.254 111.26H252.414V108.58H267.294L266.254 110.06C266.254 107.607 265.707 105.727 264.614 104.42C263.547 103.087 262.027 102.42 260.054 102.42C258.027 102.42 256.387 103.127 255.134 104.54C253.907 105.927 253.294 107.807 253.294 110.18C253.294 112.607 253.907 114.553 255.134 116.02C256.387 117.46 258.054 118.18 260.134 118.18C261.441 118.18 262.587 117.9 263.574 117.34C264.561 116.753 265.281 115.927 265.734 114.86H268.774C268.107 116.727 266.987 118.207 265.414 119.3C263.867 120.367 262.054 120.9 259.974 120.9ZM279.683 120.5L271.243 100.1H274.683L281.723 118.34H280.443L287.443 100.1H290.723L282.283 120.5H279.683ZM302.513 120.9C300.566 120.9 298.846 120.447 297.353 119.54C295.86 118.607 294.686 117.34 293.833 115.74C292.98 114.14 292.553 112.3 292.553 110.22C292.553 108.14 292.966 106.313 293.793 104.74C294.646 103.14 295.833 101.9 297.353 101.02C298.873 100.14 300.62 99.7 302.593 99.7C304.486 99.7 306.126 100.113 307.513 100.94C308.926 101.767 310.006 102.927 310.753 104.42C311.526 105.913 311.913 107.673 311.913 109.7C311.913 109.967 311.9 110.22 311.873 110.46C311.873 110.7 311.846 110.967 311.793 111.26H294.953V108.58H309.833L308.793 110.06C308.793 107.607 308.246 105.727 307.153 104.42C306.086 103.087 304.566 102.42 302.593 102.42C300.566 102.42 298.926 103.127 297.673 104.54C296.446 105.927 295.833 107.807 295.833 110.18C295.833 112.607 296.446 114.553 297.673 116.02C298.926 117.46 300.593 118.18 302.673 118.18C303.98 118.18 305.126 117.9 306.113 117.34C307.1 116.753 307.82 115.927 308.273 114.86H311.313C310.646 116.727 309.526 118.207 307.953 119.3C306.406 120.367 304.593 120.9 302.513 120.9ZM316.731 120.5V100.1H319.731V104.9H319.931V120.5H316.731ZM331.331 120.5V107.14C331.331 105.593 330.945 104.433 330.171 103.66C329.398 102.887 328.251 102.5 326.731 102.5C325.398 102.5 324.211 102.793 323.171 103.38C322.158 103.967 321.358 104.78 320.771 105.82C320.211 106.86 319.931 108.073 319.931 109.46L319.411 104.62C320.105 103.1 321.158 101.9 322.571 101.02C324.011 100.14 325.638 99.7 327.451 99.7C329.585 99.7 331.291 100.313 332.571 101.54C333.878 102.74 334.531 104.327 334.531 106.3V120.5H331.331ZM348.29 120.86C346.023 120.86 344.37 120.353 343.33 119.34C342.316 118.3 341.81 116.807 341.81 114.86V95.34L345.01 94.14V114.82C345.01 115.967 345.303 116.807 345.89 117.34C346.476 117.873 347.436 118.14 348.77 118.14C349.303 118.14 349.756 118.113 350.13 118.06C350.53 117.98 350.85 117.887 351.09 117.78V120.5C350.823 120.607 350.436 120.687 349.93 120.74C349.45 120.82 348.903 120.86 348.29 120.86ZM337.61 102.82V100.1H351.09V102.82H337.61ZM363.219 120.9C361.219 120.9 359.459 120.433 357.939 119.5C356.419 118.567 355.232 117.3 354.379 115.7C353.552 114.073 353.139 112.247 353.139 110.22C353.139 108.167 353.566 106.353 354.419 104.78C355.272 103.207 356.446 101.967 357.939 101.06C359.459 100.153 361.219 99.7 363.219 99.7C365.246 99.7 367.006 100.153 368.499 101.06C370.019 101.967 371.192 103.207 372.019 104.78C372.872 106.353 373.299 108.167 373.299 110.22C373.299 112.247 372.872 114.073 372.019 115.7C371.192 117.3 370.019 118.567 368.499 119.5C367.006 120.433 365.246 120.9 363.219 120.9ZM363.219 118.18C364.606 118.18 365.806 117.847 366.819 117.18C367.832 116.487 368.619 115.54 369.179 114.34C369.739 113.14 370.019 111.753 370.019 110.18C370.019 107.833 369.392 105.953 368.139 104.54C366.912 103.127 365.272 102.42 363.219 102.42C361.192 102.42 359.552 103.127 358.299 104.54C357.046 105.953 356.419 107.833 356.419 110.18C356.419 111.753 356.699 113.14 357.259 114.34C357.819 115.54 358.606 116.487 359.619 117.18C360.659 117.847 361.859 118.18 363.219 118.18ZM385.018 120.9C382.512 120.9 380.512 120.327 379.018 119.18C377.525 118.007 376.672 116.353 376.458 114.22H379.538C379.725 115.527 380.298 116.527 381.258 117.22C382.218 117.913 383.498 118.26 385.098 118.26C386.512 118.26 387.618 117.993 388.418 117.46C389.218 116.927 389.618 116.167 389.618 115.18C389.618 114.487 389.392 113.887 388.938 113.38C388.485 112.847 387.578 112.407 386.218 112.06L382.938 111.22C381.072 110.74 379.672 110.007 378.738 109.02C377.805 108.007 377.338 106.807 377.338 105.42C377.338 103.66 377.992 102.273 379.298 101.26C380.605 100.22 382.378 99.7 384.618 99.7C386.832 99.7 388.632 100.233 390.018 101.3C391.405 102.367 392.192 103.847 392.378 105.74H389.298C389.112 104.647 388.605 103.807 387.778 103.22C386.952 102.633 385.858 102.34 384.498 102.34C383.192 102.34 382.178 102.593 381.458 103.1C380.738 103.58 380.378 104.273 380.378 105.18C380.378 105.873 380.632 106.473 381.138 106.98C381.672 107.487 382.552 107.913 383.778 108.26L386.978 109.14C388.872 109.647 390.298 110.42 391.258 111.46C392.218 112.5 392.698 113.753 392.698 115.22C392.698 117.007 392.018 118.407 390.658 119.42C389.298 120.407 387.418 120.9 385.018 120.9ZM413.093 120.9C411.226 120.9 409.559 120.447 408.093 119.54C406.653 118.607 405.506 117.34 404.653 115.74C403.826 114.113 403.413 112.273 403.413 110.22C403.413 108.167 403.826 106.353 404.653 104.78C405.506 103.207 406.653 101.967 408.093 101.06C409.559 100.153 411.213 99.7 413.053 99.7C414.573 99.7 415.933 99.9933 417.133 100.58C418.359 101.167 419.359 102.007 420.133 103.1C420.933 104.167 421.439 105.42 421.653 106.86H418.693C418.426 105.553 417.813 104.487 416.853 103.66C415.893 102.833 414.653 102.42 413.133 102.42C411.826 102.42 410.693 102.74 409.733 103.38C408.773 104.02 408.026 104.927 407.493 106.1C406.959 107.273 406.693 108.647 406.693 110.22C406.693 111.793 406.959 113.18 407.493 114.38C408.026 115.58 408.773 116.513 409.733 117.18C410.719 117.847 411.866 118.18 413.173 118.18C414.639 118.18 415.866 117.78 416.853 116.98C417.839 116.153 418.466 115.087 418.733 113.78H421.693C421.453 115.193 420.919 116.447 420.093 117.54C419.293 118.607 418.293 119.433 417.093 120.02C415.893 120.607 414.559 120.9 413.093 120.9ZM434.743 120.9C432.743 120.9 430.983 120.433 429.463 119.5C427.943 118.567 426.756 117.3 425.903 115.7C425.076 114.073 424.663 112.247 424.663 110.22C424.663 108.167 425.089 106.353 425.943 104.78C426.796 103.207 427.969 101.967 429.463 101.06C430.983 100.153 432.743 99.7 434.743 99.7C436.769 99.7 438.529 100.153 440.023 101.06C441.543 101.967 442.716 103.207 443.543 104.78C444.396 106.353 444.823 108.167 444.823 110.22C444.823 112.247 444.396 114.073 443.543 115.7C442.716 117.3 441.543 118.567 440.023 119.5C438.529 120.433 436.769 120.9 434.743 120.9ZM434.743 118.18C436.129 118.18 437.329 117.847 438.343 117.18C439.356 116.487 440.143 115.54 440.703 114.34C441.263 113.14 441.543 111.753 441.543 110.18C441.543 107.833 440.916 105.953 439.663 104.54C438.436 103.127 436.796 102.42 434.743 102.42C432.716 102.42 431.076 103.127 429.823 104.54C428.569 105.953 427.943 107.833 427.943 110.18C427.943 111.753 428.223 113.14 428.783 114.34C429.343 115.54 430.129 116.487 431.143 117.18C432.183 117.847 433.383 118.18 434.743 118.18ZM449.622 120.5V100.1H452.622V104.9H452.822V120.5H449.622ZM463.382 120.5V106.98C463.382 105.433 463.035 104.3 462.342 103.58C461.649 102.86 460.649 102.5 459.342 102.5C458.115 102.5 457.009 102.793 456.022 103.38C455.035 103.967 454.249 104.78 453.662 105.82C453.102 106.86 452.822 108.073 452.822 109.46L452.302 104.62C452.995 103.1 454.035 101.9 455.422 101.02C456.809 100.14 458.315 99.7 459.942 99.7C461.915 99.7 463.515 100.287 464.742 101.46C465.969 102.607 466.582 104.167 466.582 106.14V120.5H463.382ZM477.142 120.5V106.98C477.142 105.433 476.795 104.3 476.102 103.58C475.409 102.86 474.409 102.5 473.102 102.5C471.875 102.5 470.769 102.793 469.782 103.38C468.795 103.967 468.009 104.78 467.422 105.82C466.862 106.86 466.582 108.073 466.582 109.46L465.782 104.62C466.475 103.1 467.542 101.9 468.982 101.02C470.422 100.14 471.969 99.7 473.622 99.7C475.595 99.7 477.209 100.287 478.462 101.46C479.715 102.607 480.342 104.167 480.342 106.14V120.5H477.142ZM501.145 120.9C499.811 120.9 498.625 120.633 497.585 120.1C496.545 119.54 495.731 118.767 495.145 117.78C494.558 116.767 494.265 115.607 494.265 114.3V100.1H497.465V113.46C497.465 115.007 497.838 116.167 498.585 116.94C499.358 117.713 500.451 118.1 501.865 118.1C503.145 118.1 504.278 117.807 505.265 117.22C506.251 116.633 507.025 115.82 507.585 114.78C508.171 113.713 508.465 112.5 508.465 111.14L508.985 115.98C508.318 117.5 507.278 118.7 505.865 119.58C504.451 120.46 502.878 120.9 501.145 120.9ZM508.665 120.5V115.7H508.465V100.1H511.665V120.5H508.665ZM518.059 120.5V100.1H521.059V104.9H521.259V120.5H518.059ZM531.819 120.5V106.98C531.819 105.433 531.473 104.3 530.779 103.58C530.086 102.86 529.086 102.5 527.779 102.5C526.553 102.5 525.446 102.793 524.459 103.38C523.473 103.967 522.686 104.78 522.099 105.82C521.539 106.86 521.259 108.073 521.259 109.46L520.739 104.62C521.433 103.1 522.473 101.9 523.859 101.02C525.246 100.14 526.753 99.7 528.379 99.7C530.353 99.7 531.953 100.287 533.179 101.46C534.406 102.607 535.019 104.167 535.019 106.14V120.5H531.819ZM545.579 120.5V106.98C545.579 105.433 545.233 104.3 544.539 103.58C543.846 102.86 542.846 102.5 541.539 102.5C540.313 102.5 539.206 102.793 538.219 103.38C537.233 103.967 536.446 104.78 535.859 105.82C535.299 106.86 535.019 108.073 535.019 109.46L534.219 104.62C534.913 103.1 535.979 101.9 537.419 101.02C538.859 100.14 540.406 99.7 542.059 99.7C544.033 99.7 545.646 100.287 546.899 101.46C548.153 102.607 548.779 104.167 548.779 106.14V120.5H545.579ZM571.022 120.9C569.156 120.9 567.489 120.447 566.022 119.54C564.582 118.607 563.436 117.34 562.582 115.74C561.756 114.113 561.342 112.273 561.342 110.22C561.342 108.167 561.756 106.353 562.582 104.78C563.436 103.207 564.582 101.967 566.022 101.06C567.489 100.153 569.142 99.7 570.982 99.7C572.502 99.7 573.862 99.9933 575.062 100.58C576.289 101.167 577.289 102.007 578.062 103.1C578.862 104.167 579.369 105.42 579.582 106.86H576.622C576.356 105.553 575.742 104.487 574.782 103.66C573.822 102.833 572.582 102.42 571.062 102.42C569.756 102.42 568.622 102.74 567.662 103.38C566.702 104.02 565.956 104.927 565.422 106.1C564.889 107.273 564.622 108.647 564.622 110.22C564.622 111.793 564.889 113.18 565.422 114.38C565.956 115.58 566.702 116.513 567.662 117.18C568.649 117.847 569.796 118.18 571.102 118.18C572.569 118.18 573.796 117.78 574.782 116.98C575.769 116.153 576.396 115.087 576.662 113.78H579.622C579.382 115.193 578.849 116.447 578.022 117.54C577.222 118.607 576.222 119.433 575.022 120.02C573.822 120.607 572.489 120.9 571.022 120.9ZM584.27 120.5V91.7H587.47V120.5H584.27ZM593.88 120.5V100.1H597.08V120.5H593.88ZM593.64 95.46V91.7H597.32V95.46H593.64ZM618.051 128.7V115.74L618.651 115.86C618.144 117.407 617.211 118.633 615.851 119.54C614.518 120.447 612.918 120.9 611.051 120.9C609.211 120.9 607.598 120.473 606.211 119.62C604.851 118.74 603.784 117.513 603.011 115.94C602.264 114.34 601.891 112.487 601.891 110.38C601.891 108.247 602.278 106.38 603.051 104.78C603.824 103.18 604.904 101.94 606.291 101.06C607.678 100.18 609.304 99.74 611.171 99.74C613.091 99.74 614.704 100.207 616.011 101.14C617.318 102.073 618.211 103.393 618.691 105.1L618.251 105.18V100.1H621.251V128.7H618.051ZM611.651 118.1C613.704 118.1 615.304 117.407 616.451 116.02C617.624 114.607 618.211 112.687 618.211 110.26C618.211 107.887 617.624 106.007 616.451 104.62C615.278 103.233 613.678 102.54 611.651 102.54C609.624 102.54 608.038 103.233 606.891 104.62C605.744 106.007 605.171 107.927 605.171 110.38C605.171 112.78 605.744 114.673 606.891 116.06C608.038 117.42 609.624 118.1 611.651 118.1ZM634.309 120.9C632.975 120.9 631.789 120.633 630.749 120.1C629.709 119.54 628.895 118.767 628.309 117.78C627.722 116.767 627.429 115.607 627.429 114.3V100.1H630.629V113.46C630.629 115.007 631.002 116.167 631.749 116.94C632.522 117.713 633.615 118.1 635.029 118.1C636.309 118.1 637.442 117.807 638.429 117.22C639.415 116.633 640.189 115.82 640.749 114.78C641.335 113.713 641.629 112.5 641.629 111.14L642.149 115.98C641.482 117.5 640.442 118.7 639.029 119.58C637.615 120.46 636.042 120.9 634.309 120.9ZM641.829 120.5V115.7H641.629V100.1H644.829V120.5H641.829ZM659.505 120.9C657.559 120.9 655.839 120.447 654.345 119.54C652.852 118.607 651.679 117.34 650.825 115.74C649.972 114.14 649.545 112.3 649.545 110.22C649.545 108.14 649.959 106.313 650.785 104.74C651.639 103.14 652.825 101.9 654.345 101.02C655.865 100.14 657.612 99.7 659.585 99.7C661.479 99.7 663.119 100.113 664.505 100.94C665.919 101.767 666.999 102.927 667.745 104.42C668.519 105.913 668.905 107.673 668.905 109.7C668.905 109.967 668.892 110.22 668.865 110.46C668.865 110.7 668.839 110.967 668.785 111.26H651.945V108.58H666.825L665.785 110.06C665.785 107.607 665.239 105.727 664.145 104.42C663.079 103.087 661.559 102.42 659.585 102.42C657.559 102.42 655.919 103.127 654.665 104.54C653.439 105.927 652.825 107.807 652.825 110.18C652.825 112.607 653.439 114.553 654.665 116.02C655.919 117.46 657.585 118.18 659.665 118.18C660.972 118.18 662.119 117.9 663.105 117.34C664.092 116.753 664.812 115.927 665.265 114.86H668.305C667.639 116.727 666.519 118.207 664.945 119.3C663.399 120.367 661.585 120.9 659.505 120.9Z" fill="#969696"/>
<defs>
<clipPath id="clip0_43_82">
<rect width="134" height="134" fill="white"/>
</clipPath>
</defs>
</svg>
